<svg xmlns="http://www.w3.org/2000/svg" width="1280" height="640" viewBox="0 0 1280 640"><rect width="1280" height="640" fill="#1C1A17"></rect><defs><radialGradient id="glow" cx="1140" cy="140" r="300" gradientUnits="userSpaceOnUse"><stop offset="0" stop-color="#D97757" stop-opacity="0.22"></stop><stop offset="0.65" stop-color="#D97757" stop-opacity="0"></stop></radialGradient></defs><rect width="1280" height="640" fill="url(#glow)"></rect><g transform="translate(80,76) scale(0.19531)"><polygon points="256,26 486,141 256,256 26,141" fill="#EC9A7C"></polygon><polygon points="26,141 256,256 256,486 26,371" fill="#C45D3A"></polygon><polygon points="256,256 486,141 486,371 256,486" fill="#A84A2C"></polygon><g transform="translate(141,313) skewY(26.57)"><g transform="translate(-44.89,18.17)"><path d="M40.19-20.79L6.01-4.47L6.01-12.86L28.72-23.48Q30.26-24.18 31.72-24.64Q33.19-25.10 33.96-25.26L33.96-25.26Q33.11-25.41 31.65-25.91Q30.18-26.41 28.72-27.10L28.72-27.10L6.01-37.73L6.01-46.28L40.19-29.95L40.19-20.79ZM83.78 9.93L46.82 9.93L46.82 1.93L83.78 1.93L83.78 9.93Z" fill="#F7F3EC"></path></g></g><g transform="translate(371,313) skewY(-26.57)"><g transform="translate(-44.89,18.17)"><path d="M40.19-20.79L6.01-4.47L6.01-12.86L28.72-23.48Q30.26-24.18 31.72-24.64Q33.19-25.10 33.96-25.26L33.96-25.26Q33.11-25.41 31.65-25.91Q30.18-26.41 28.72-27.10L28.72-27.10L6.01-37.73L6.01-46.28L40.19-29.95L40.19-20.79ZM83.78 9.93L46.82 9.93L46.82 1.93L83.78 1.93L83.78 9.93Z" fill="#F7F3EC"></path></g></g></g><g transform="translate(0,140.00)"><path d="M217.32 0.56L217.32 0.56Q212.32 0.56 209.36-2.34Q206.40-5.24 206.40-10.80L206.40-10.80L206.40-17.20Q206.40-22.76 209.36-25.66Q212.32-28.56 217.32-28.56L217.32-28.56Q222.28-28.56 224.94-25.80Q227.60-23.04 227.60-18.24L227.60-18.24L227.60-18.04L224.28-18.04L224.28-18.36Q224.28-21.52 222.58-23.54Q220.88-25.56 217.32-25.56L217.32-25.56Q213.76-25.56 211.76-23.38Q209.76-21.20 209.76-17.28L209.76-17.28L209.76-10.72Q209.76-6.80 211.76-4.62Q213.76-2.44 217.32-2.44L217.32-2.44Q220.88-2.44 222.58-4.46Q224.28-6.48 224.28-9.64L224.28-9.64L224.28-10.28L227.60-10.28L227.60-9.76Q227.60-4.96 224.94-2.20Q222.28 0.56 217.32 0.56ZM235.16 0L232 0L232-28L235.16-28L235.16 0ZM246.80 0.56L246.80 0.56Q244.76 0.56 243.08-0.16Q241.40-0.88 240.44-2.24Q239.48-3.60 239.48-5.56L239.48-5.56Q239.48-7.56 240.44-8.86Q241.40-10.16 243.08-10.82Q244.76-11.48 246.84-11.48L246.84-11.48L253.44-11.48L253.44-12.92Q253.44-15 252.22-16.20Q251.00-17.40 248.60-17.40L248.60-17.40Q246.24-17.40 244.92-16.26Q243.60-15.12 243.12-13.20L243.12-13.20L240.16-14.16Q240.64-15.80 241.68-17.14Q242.72-18.48 244.46-19.30Q246.20-20.12 248.64-20.12L248.64-20.12Q252.40-20.12 254.48-18.18Q256.56-16.24 256.56-12.72L256.56-12.72L256.56-3.88Q256.56-2.68 257.68-2.68L257.68-2.68L259.48-2.68L259.48 0L256.72 0Q255.40 0 254.60-0.74Q253.80-1.48 253.80-2.72L253.80-2.72L253.80-2.92L253.32-2.92Q252.88-2.16 252.14-1.34Q251.40-0.52 250.12 0.02Q248.84 0.56 246.80 0.56ZM247.16-2.16L247.16-2.16Q249.96-2.16 251.70-3.82Q253.44-5.48 253.44-8.48L253.44-8.48L253.44-8.92L246.96-8.92Q245.08-8.92 243.86-8.10Q242.64-7.28 242.64-5.64L242.64-5.64Q242.64-4 243.90-3.08Q245.16-2.16 247.16-2.16ZM270.28 0.36L270.28 0.36Q268.16 0.36 266.38-0.56Q264.60-1.48 263.58-3.30Q262.56-5.12 262.56-7.72L262.56-7.72L262.56-19.56L265.72-19.56L265.72-7.96Q265.72-5.04 267.18-3.72Q268.64-2.40 271.12-2.40L271.12-2.40Q273.92-2.40 275.72-4.24Q277.52-6.08 277.52-9.72L277.52-9.72L277.52-19.56L280.68-19.56L280.68 0L277.60 0L277.60-3.32L277.04-3.32Q276.40-1.92 274.84-0.78Q273.28 0.36 270.28 0.36ZM294.56 0.56L294.56 0.56Q292.04 0.56 289.92-0.64Q287.80-1.84 286.56-4.12Q285.32-6.40 285.32-9.52L285.32-9.52L285.32-10.04Q285.32-13.16 286.56-15.42Q287.80-17.68 289.90-18.90Q292.00-20.12 294.56-20.12L294.56-20.12Q296.60-20.12 298.02-19.58Q299.44-19.04 300.32-18.22Q301.20-17.40 301.68-16.48L301.68-16.48L302.24-16.48L302.24-28L305.40-28L305.40 0L302.32 0L302.32-3.24L301.76-3.24Q300.96-1.76 299.28-0.60Q297.60 0.56 294.56 0.56ZM295.40-2.24L295.40-2.24Q298.44-2.24 300.34-4.18Q302.24-6.12 302.24-9.60L302.24-9.60L302.24-9.96Q302.24-13.44 300.34-15.38Q298.44-17.32 295.40-17.32L295.40-17.32Q292.40-17.32 290.46-15.38Q288.52-13.44 288.52-9.96L288.52-9.96L288.52-9.60Q288.52-6.12 290.46-4.18Q292.40-2.24 295.40-2.24ZM320 0.56L320 0.56Q317.04 0.56 314.80-0.70Q312.56-1.96 311.32-4.24Q310.08-6.52 310.08-9.52L310.08-9.52L310.08-10Q310.08-13.04 311.32-15.32Q312.56-17.60 314.76-18.86Q316.96-20.12 319.80-20.12L319.80-20.12Q322.56-20.12 324.68-18.94Q326.80-17.76 328-15.56Q329.20-13.36 329.20-10.40L329.20-10.40L329.20-8.96L313.24-8.96Q313.36-5.80 315.28-4.02Q317.20-2.24 320.08-2.24L320.08-2.24Q322.60-2.24 323.96-3.40Q325.32-4.56 326.04-6.16L326.04-6.16L328.76-4.84Q328.16-3.60 327.10-2.36Q326.04-1.12 324.34-0.28Q322.64 0.56 320 0.56ZM313.28-11.56L313.28-11.56L326-11.56Q325.84-14.28 324.14-15.80Q322.44-17.32 319.80-17.32L319.80-17.32Q317.12-17.32 315.40-15.80Q313.68-14.28 313.28-11.56Z" fill="#F7F3EC"></path><path d="M346.80 0L332.24 0L332.24-4.64L335.92-4.64L335.92-23.36L332.24-23.36L332.24-28L346.64-28Q349.20-28 351.10-27.14Q353.00-26.28 354.06-24.70Q355.12-23.12 355.12-20.92L355.12-20.92L355.12-20.52Q355.12-18.60 354.40-17.38Q353.68-16.16 352.70-15.50Q351.72-14.84 350.84-14.56L350.84-14.56L350.84-13.84Q351.72-13.60 352.76-12.94Q353.80-12.28 354.54-11.04Q355.28-9.80 355.28-7.80L355.28-7.80L355.28-7.40Q355.28-5.08 354.20-3.42Q353.12-1.76 351.22-0.88Q349.32 0 346.80 0L346.80 0ZM341.20-11.68L341.20-4.80L346.16-4.80Q347.88-4.80 348.94-5.64Q350.00-6.48 350.00-8.04L350.00-8.04L350.00-8.44Q350.00-10 348.96-10.84Q347.92-11.68 346.16-11.68L346.16-11.68L341.20-11.68ZM341.20-23.20L341.20-16.48L346.08-16.48Q347.72-16.48 348.78-17.32Q349.84-18.16 349.84-19.64L349.84-19.64L349.84-20.04Q349.84-21.56 348.80-22.38Q347.76-23.20 346.08-23.20L346.08-23.20L341.20-23.20ZM368.20 0.56L368.20 0.56Q365.24 0.56 362.88-0.64Q360.52-1.84 359.16-4.12Q357.80-6.40 357.80-9.60L357.80-9.60L357.80-10.24Q357.80-13.44 359.16-15.72Q360.52-18 362.88-19.20Q365.24-20.40 368.20-20.40L368.20-20.40Q371.16-20.40 373.52-19.20Q375.88-18 377.24-15.72Q378.60-13.44 378.60-10.24L378.60-10.24L378.60-9.60Q378.60-6.40 377.24-4.12Q375.88-1.84 373.52-0.64Q371.16 0.56 368.20 0.56ZM368.20-3.92L368.20-3.92Q370.52-3.92 372.04-5.42Q373.56-6.92 373.56-9.72L373.56-9.72L373.56-10.12Q373.56-12.92 372.06-14.42Q370.56-15.92 368.20-15.92L368.20-15.92Q365.88-15.92 364.36-14.42Q362.84-12.92 362.84-10.12L362.84-10.12L362.84-9.72Q362.84-6.92 364.36-5.42Q365.88-3.92 368.20-3.92ZM386.40 0L380.48 0L387.68-10L380.56-19.84L386.40-19.84L390.92-13.24L391.64-13.24L396.16-19.84L402.00-19.84L394.88-10L402.08 0L396.16 0L391.64-6.68L390.92-6.68L386.40 0Z" fill="#D97757"></path></g><path d="M92.16 260L84.42 260L84.42 215.20L103.55 215.20Q107.78 215.20 110.91 216.67Q114.05 218.14 115.81 220.80Q117.57 223.46 117.57 227.17L117.57 227.17L117.57 227.87Q117.57 232.03 115.58 234.53Q113.60 237.02 110.78 238.18L110.78 238.18L110.78 239.20Q113.28 239.33 114.72 240.93Q116.16 242.53 116.16 245.22L116.16 245.22L116.16 260L108.48 260L108.48 246.30Q108.48 244.70 107.62 243.71Q106.75 242.72 104.83 242.72L104.83 242.72L92.16 242.72L92.16 260ZM92.16 222.18L92.16 235.74L102.78 235.74Q106.11 235.74 108 233.98Q109.89 232.22 109.89 229.28L109.89 229.28L109.89 228.70Q109.89 225.70 108.03 223.94Q106.18 222.18 102.78 222.18L102.78 222.18L92.16 222.18ZM135.32 260.51L135.32 260.51Q131.67 260.51 128.85 258.88Q126.04 257.25 124.50 254.27Q122.96 251.30 122.96 247.33L122.96 247.33L122.96 228.38L130.26 228.38L130.26 246.75Q130.26 250.59 132.15 252.45Q134.04 254.30 137.49 254.30L137.49 254.30Q141.40 254.30 143.67 251.74Q145.94 249.18 145.94 244.38L145.94 244.38L145.94 228.38L153.24 228.38L153.24 260L146.07 260L146.07 255.58L144.98 255.58Q144.15 257.31 141.94 258.91Q139.73 260.51 135.32 260.51ZM168.04 260L160.68 260L160.68 228.38L167.91 228.38L167.91 232.80L169 232.80Q169.83 231.01 172.01 229.41Q174.18 227.81 178.60 227.81L178.60 227.81Q182.25 227.81 185.06 229.47Q187.88 231.14 189.45 234.08Q191.02 237.02 191.02 241.06L191.02 241.06L191.02 260L183.66 260L183.66 241.63Q183.66 237.79 181.77 235.90Q179.88 234.02 176.42 234.02L176.42 234.02Q172.52 234.02 170.28 236.61Q168.04 239.20 168.04 244L168.04 244L168.04 260ZM229.14 260.90L229.14 260.90Q220.94 260.90 216.08 256.26Q211.22 251.62 211.22 242.91L211.22 242.91L211.22 232.29Q211.22 223.58 216.08 218.94Q220.94 214.30 229.14 214.30L229.14 214.30Q237.33 214.30 241.78 218.78Q246.22 223.26 246.22 231.07L246.22 231.07L246.22 231.46L238.67 231.46L238.67 230.88Q238.67 226.66 236.34 223.94Q234 221.22 229.14 221.22L229.14 221.22Q224.40 221.22 221.68 224.13Q218.96 227.04 218.96 232.16L218.96 232.16L218.96 243.04Q218.96 248.10 221.68 251.04Q224.40 253.98 229.14 253.98L229.14 253.98Q234 253.98 236.34 251.26Q238.67 248.54 238.67 244.32L238.67 244.32L238.67 243.23L246.22 243.23L246.22 244.13Q246.22 251.94 241.78 256.42Q237.33 260.90 229.14 260.90ZM259.17 260L251.81 260L251.81 215.20L259.17 215.20L259.17 260ZM276.41 260.90L276.41 260.90Q273.08 260.90 270.39 259.71Q267.70 258.53 266.14 256.29Q264.57 254.05 264.57 250.78L264.57 250.78Q264.57 247.58 266.14 245.41Q267.70 243.23 270.46 242.11Q273.21 240.99 276.73 240.99L276.73 240.99L285.88 240.99L285.88 239.07Q285.88 236.58 284.34 235.01Q282.81 233.44 279.54 233.44L279.54 233.44Q276.34 233.44 274.71 234.94Q273.08 236.45 272.57 238.82L272.57 238.82L265.78 236.58Q266.55 234.08 268.25 232.03Q269.94 229.98 272.76 228.74Q275.58 227.49 279.67 227.49L279.67 227.49Q285.88 227.49 289.43 230.59Q292.98 233.70 292.98 239.58L292.98 239.58L292.98 252Q292.98 253.92 294.78 253.92L294.78 253.92L297.46 253.92L297.46 260L292.28 260Q289.98 260 288.50 258.85Q287.03 257.70 287.03 255.71L287.03 255.71L287.03 255.58L285.94 255.58Q285.56 256.48 284.60 257.76Q283.64 259.04 281.69 259.97Q279.74 260.90 276.41 260.90ZM277.62 254.88L277.62 254.88Q281.27 254.88 283.58 252.80Q285.88 250.72 285.88 247.20L285.88 247.20L285.88 246.56L277.18 246.56Q274.81 246.56 273.34 247.58Q271.86 248.61 271.86 250.59L271.86 250.59Q271.86 252.51 273.40 253.70Q274.94 254.88 277.62 254.88ZM313.74 260.51L313.74 260.51Q310.09 260.51 307.28 258.88Q304.46 257.25 302.92 254.27Q301.39 251.30 301.39 247.33L301.39 247.33L301.39 228.38L308.68 228.38L308.68 246.75Q308.68 250.59 310.57 252.45Q312.46 254.30 315.92 254.30L315.92 254.30Q319.82 254.30 322.09 251.74Q324.36 249.18 324.36 244.38L324.36 244.38L324.36 228.38L331.66 228.38L331.66 260L324.49 260L324.49 255.58L323.40 255.58Q322.57 257.31 320.36 258.91Q318.16 260.51 313.74 260.51ZM352.03 260.90L352.03 260.90Q348.19 260.90 344.86 259.01Q341.54 257.12 339.55 253.47Q337.57 249.82 337.57 244.70L337.57 244.70L337.57 243.68Q337.57 238.56 339.55 234.91Q341.54 231.26 344.83 229.38Q348.13 227.49 352.03 227.49L352.03 227.49Q354.98 227.49 357.02 228.19Q359.07 228.90 360.32 229.98Q361.57 231.07 362.27 232.35L362.27 232.35L363.36 232.35L363.36 215.20L370.66 215.20L370.66 260L363.49 260L363.49 255.84L362.40 255.84Q361.25 257.76 358.88 259.33Q356.51 260.90 352.03 260.90ZM354.21 254.50L354.21 254.50Q358.18 254.50 360.80 251.90Q363.42 249.31 363.42 244.51L363.42 244.51L363.42 243.87Q363.42 239.01 360.83 236.45Q358.24 233.89 354.21 233.89L354.21 233.89Q350.24 233.89 347.58 236.45Q344.93 239.01 344.93 243.87L344.93 243.87L344.93 244.51Q344.93 249.31 347.58 251.90Q350.24 254.50 354.21 254.50ZM392.56 260.90L392.56 260.90Q387.83 260.90 384.21 258.88Q380.60 256.86 378.58 253.18Q376.56 249.50 376.56 244.58L376.56 244.58L376.56 243.81Q376.56 238.82 378.55 235.17Q380.53 231.52 384.12 229.50Q387.70 227.49 392.37 227.49L392.37 227.49Q396.98 227.49 400.44 229.50Q403.89 231.52 405.81 235.17Q407.73 238.82 407.73 243.68L407.73 243.68L407.73 246.30L383.99 246.30Q384.12 250.02 386.61 252.26Q389.11 254.50 392.76 254.50L392.76 254.50Q396.34 254.50 398.07 252.93Q399.80 251.36 400.69 249.38L400.69 249.38L406.77 252.51Q405.88 254.24 404.18 256.19Q402.48 258.14 399.67 259.52Q396.85 260.90 392.56 260.90ZM384.05 240.74L384.05 240.74L400.24 240.74Q399.99 237.60 397.84 235.74Q395.70 233.89 392.31 233.89L392.31 233.89Q388.79 233.89 386.68 235.74Q384.56 237.60 384.05 240.74ZM435.16 260L427.80 260L427.80 228.38L435.16 228.38L435.16 260ZM431.45 224.35L431.45 224.35Q429.47 224.35 428.03 223.04Q426.59 221.73 426.59 219.55L426.59 219.55Q426.59 217.38 428.03 216.06Q429.47 214.75 431.45 214.75L431.45 214.75Q433.56 214.75 434.94 216.06Q436.32 217.38 436.32 219.55L436.32 219.55Q436.32 221.73 434.94 223.04Q433.56 224.35 431.45 224.35ZM449.97 260L442.61 260L442.61 228.38L449.84 228.38L449.84 232.80L450.93 232.80Q451.76 231.01 453.94 229.41Q456.11 227.81 460.53 227.81L460.53 227.81Q464.18 227.81 466.99 229.47Q469.81 231.14 471.38 234.08Q472.94 237.02 472.94 241.06L472.94 241.06L472.94 260L465.58 260L465.58 241.63Q465.58 237.79 463.70 235.90Q461.81 234.02 458.35 234.02L458.35 234.02Q454.45 234.02 452.21 236.61Q449.97 239.20 449.97 244L449.97 244L449.97 260ZM504.28 260.90L504.28 260.90Q500.95 260.90 498.26 259.71Q495.58 258.53 494.01 256.29Q492.44 254.05 492.44 250.78L492.44 250.78Q492.44 247.58 494.01 245.41Q495.58 243.23 498.33 242.11Q501.08 240.99 504.60 240.99L504.60 240.99L513.75 240.99L513.75 239.07Q513.75 236.58 512.22 235.01Q510.68 233.44 507.42 233.44L507.42 233.44Q504.22 233.44 502.58 234.94Q500.95 236.45 500.44 238.82L500.44 238.82L493.66 236.58Q494.42 234.08 496.12 232.03Q497.82 229.98 500.63 228.74Q503.45 227.49 507.54 227.49L507.54 227.49Q513.75 227.49 517.30 230.59Q520.86 233.70 520.86 239.58L520.86 239.58L520.86 252Q520.86 253.92 522.65 253.92L522.65 253.92L525.34 253.92L525.34 260L520.15 260Q517.85 260 516.38 258.85Q514.90 257.70 514.90 255.71L514.90 255.71L514.90 255.58L513.82 255.58Q513.43 256.48 512.47 257.76Q511.51 259.04 509.56 259.97Q507.61 260.90 504.28 260.90ZM505.50 254.88L505.50 254.88Q509.14 254.88 511.45 252.80Q513.75 250.72 513.75 247.20L513.75 247.20L513.75 246.56L505.05 246.56Q502.68 246.56 501.21 247.58Q499.74 248.61 499.74 250.59L499.74 250.59Q499.74 252.51 501.27 253.70Q502.81 254.88 505.50 254.88ZM556.99 260.90L556.99 260.90Q550.85 260.90 546.88 258.21Q542.91 255.52 542.08 250.34L542.08 250.34L548.86 248.61Q549.31 251.04 550.46 252.45Q551.62 253.86 553.31 254.43Q555.01 255.01 556.99 255.01L556.99 255.01Q560.00 255.01 561.50 253.92Q563.01 252.83 563.01 251.17L563.01 251.17Q563.01 249.44 561.57 248.61Q560.13 247.78 557.18 247.20L557.18 247.20L555.20 246.88Q551.94 246.24 549.25 245.12Q546.56 244 544.93 242.05Q543.30 240.10 543.30 237.09L543.30 237.09Q543.30 232.48 546.72 229.98Q550.14 227.49 555.71 227.49L555.71 227.49Q561.02 227.49 564.48 229.86Q567.94 232.22 568.96 236.19L568.96 236.19L562.18 238.24Q561.66 235.55 559.94 234.43Q558.21 233.31 555.71 233.31L555.71 233.31Q553.15 233.31 551.78 234.21Q550.40 235.10 550.40 236.77L550.40 236.77Q550.40 238.43 551.81 239.26Q553.22 240.10 555.58 240.48L555.58 240.48L557.57 240.86Q561.09 241.50 563.94 242.53Q566.78 243.55 568.45 245.47Q570.11 247.39 570.11 250.66L570.11 250.66Q570.11 255.58 566.56 258.24Q563.01 260.90 556.99 260.90ZM585.43 260.90L585.43 260.90Q582.10 260.90 579.41 259.71Q576.72 258.53 575.16 256.29Q573.59 254.05 573.59 250.78L573.59 250.78Q573.59 247.58 575.16 245.41Q576.72 243.23 579.48 242.11Q582.23 240.99 585.75 240.99L585.75 240.99L594.90 240.99L594.90 239.07Q594.90 236.58 593.36 235.01Q591.83 233.44 588.56 233.44L588.56 233.44Q585.36 233.44 583.73 234.94Q582.10 236.45 581.59 238.82L581.59 238.82L574.80 236.58Q575.57 234.08 577.27 232.03Q578.96 229.98 581.78 228.74Q584.60 227.49 588.69 227.49L588.69 227.49Q594.90 227.49 598.45 230.59Q602.00 233.70 602.00 239.58L602.00 239.58L602.00 252Q602.00 253.92 603.80 253.92L603.80 253.92L606.48 253.92L606.48 260L601.30 260Q599.00 260 597.52 258.85Q596.05 257.70 596.05 255.71L596.05 255.71L596.05 255.58L594.96 255.58Q594.58 256.48 593.62 257.76Q592.66 259.04 590.71 259.97Q588.76 260.90 585.43 260.90ZM586.64 254.88L586.64 254.88Q590.29 254.88 592.60 252.80Q594.90 250.72 594.90 247.20L594.90 247.20L594.90 246.56L586.20 246.56Q583.83 246.56 582.36 247.58Q580.88 248.61 580.88 250.59L580.88 250.59Q580.88 252.51 582.42 253.70Q583.96 254.88 586.64 254.88ZM618.02 260L610.66 260L610.66 228.38L617.90 228.38L617.90 232.80L618.98 232.80Q619.82 231.01 621.99 229.41Q624.17 227.81 628.58 227.81L628.58 227.81Q632.23 227.81 635.05 229.47Q637.86 231.14 639.43 234.08Q641 237.02 641 241.06L641 241.06L641 260L633.64 260L633.64 241.63Q633.64 237.79 631.75 235.90Q629.86 234.02 626.41 234.02L626.41 234.02Q622.50 234.02 620.26 236.61Q618.02 239.20 618.02 244L618.02 244L618.02 260ZM661.05 260.90L661.05 260.90Q657.21 260.90 653.88 259.01Q650.56 257.12 648.57 253.47Q646.59 249.82 646.59 244.70L646.59 244.70L646.59 243.68Q646.59 238.56 648.57 234.91Q650.56 231.26 653.85 229.38Q657.15 227.49 661.05 227.49L661.05 227.49Q664.00 227.49 666.04 228.19Q668.09 228.90 669.34 229.98Q670.59 231.07 671.29 232.35L671.29 232.35L672.38 232.35L672.38 215.20L679.68 215.20L679.68 260L672.51 260L672.51 255.84L671.42 255.84Q670.27 257.76 667.90 259.33Q665.53 260.90 661.05 260.90ZM663.23 254.50L663.23 254.50Q667.20 254.50 669.82 251.90Q672.44 249.31 672.44 244.51L672.44 244.51L672.44 243.87Q672.44 239.01 669.85 236.45Q667.26 233.89 663.23 233.89L663.23 233.89Q659.26 233.89 656.60 236.45Q653.95 239.01 653.95 243.87L653.95 243.87L653.95 244.51Q653.95 249.31 656.60 251.90Q659.26 254.50 663.23 254.50ZM705.81 260.90L705.81 260.90Q701.33 260.90 698.93 259.33Q696.53 257.76 695.44 255.84L695.44 255.84L694.35 255.84L694.35 260L687.12 260L687.12 215.20L694.48 215.20L694.48 232.35L695.57 232.35Q696.27 231.07 697.52 229.98Q698.77 228.90 700.78 228.19Q702.80 227.49 705.81 227.49L705.81 227.49Q709.71 227.49 712.98 229.38Q716.24 231.26 718.22 234.91Q720.21 238.56 720.21 243.68L720.21 243.68L720.21 244.70Q720.21 249.82 718.22 253.47Q716.24 257.12 712.94 259.01Q709.65 260.90 705.81 260.90ZM703.63 254.50L703.63 254.50Q707.60 254.50 710.22 251.90Q712.85 249.31 712.85 244.51L712.85 244.51L712.85 243.87Q712.85 239.01 710.26 236.45Q707.66 233.89 703.63 233.89L703.63 233.89Q699.66 233.89 697.01 236.45Q694.35 239.01 694.35 243.87L694.35 243.87L694.35 244.51Q694.35 249.31 697.01 251.90Q699.66 254.50 703.63 254.50ZM741.09 260.90L741.09 260.90Q736.36 260.90 732.61 258.94Q728.87 256.99 726.72 253.38Q724.58 249.76 724.58 244.70L724.58 244.70L724.58 243.68Q724.58 238.62 726.72 234.98Q728.87 231.33 732.61 229.41Q736.36 227.49 741.09 227.49L741.09 227.49Q745.83 227.49 749.54 229.41Q753.25 231.33 755.40 234.98Q757.54 238.62 757.54 243.68L757.54 243.68L757.54 244.70Q757.54 249.76 755.40 253.38Q753.25 256.99 749.54 258.94Q745.83 260.90 741.09 260.90ZM741.09 254.37L741.09 254.37Q745.12 254.37 747.68 251.78Q750.24 249.18 750.24 244.51L750.24 244.51L750.24 243.87Q750.24 239.20 747.68 236.61Q745.12 234.02 741.09 234.02L741.09 234.02Q737.06 234.02 734.50 236.61Q731.94 239.20 731.94 243.87L731.94 243.87L731.94 244.51Q731.94 249.18 734.50 251.78Q737.06 254.37 741.09 254.37ZM769.40 260L760.70 260L772.47 244.06L760.89 228.38L769.46 228.38L777.21 239.33L778.30 239.33L786.04 228.38L794.55 228.38L782.97 244.06L794.74 260L786.10 260L778.30 248.86L777.21 248.86L769.40 260ZM813.90 260.90L813.90 260.90Q809.16 260.90 805.55 258.88Q801.93 256.86 799.92 253.18Q797.90 249.50 797.90 244.58L797.90 244.58L797.90 243.81Q797.90 238.82 799.88 235.17Q801.87 231.52 805.45 229.50Q809.04 227.49 813.71 227.49L813.71 227.49Q818.32 227.49 821.77 229.50Q825.23 231.52 827.15 235.17Q829.07 238.82 829.07 243.68L829.07 243.68L829.07 246.30L805.32 246.30Q805.45 250.02 807.95 252.26Q810.44 254.50 814.09 254.50L814.09 254.50Q817.68 254.50 819.40 252.93Q821.13 251.36 822.03 249.38L822.03 249.38L828.11 252.51Q827.21 254.24 825.52 256.19Q823.82 258.14 821.00 259.52Q818.19 260.90 813.90 260.90ZM805.39 240.74L805.39 240.74L821.58 240.74Q821.32 237.60 819.18 235.74Q817.04 233.89 813.64 233.89L813.64 233.89Q810.12 233.89 808.01 235.74Q805.90 237.60 805.39 240.74ZM847.65 260.90L847.65 260.90Q843.81 260.90 840.48 259.01Q837.15 257.12 835.17 253.47Q833.18 249.82 833.18 244.70L833.18 244.70L833.18 243.68Q833.18 238.56 835.17 234.91Q837.15 231.26 840.45 229.38Q843.74 227.49 847.65 227.49L847.65 227.49Q850.59 227.49 852.64 228.19Q854.69 228.90 855.94 229.98Q857.18 231.07 857.89 232.35L857.89 232.35L858.98 232.35L858.98 215.20L866.27 215.20L866.27 260L859.10 260L859.10 255.84L858.02 255.84Q856.86 257.76 854.50 259.33Q852.13 260.90 847.65 260.90ZM849.82 254.50L849.82 254.50Q853.79 254.50 856.42 251.90Q859.04 249.31 859.04 244.51L859.04 244.51L859.04 243.87Q859.04 239.01 856.45 236.45Q853.86 233.89 849.82 233.89L849.82 233.89Q845.86 233.89 843.20 236.45Q840.54 239.01 840.54 243.87L840.54 243.87L840.54 244.51Q840.54 249.31 843.20 251.90Q845.86 254.50 849.82 254.50Z" fill="#F7F3EC"></path><path d="M101.18 329L82.94 329L82.94 322.22L88.96 322.22L88.96 290.98L82.94 290.98L82.94 284.20L101.18 284.20Q110.14 284.20 114.88 288.74Q119.62 293.29 119.62 302.38L119.62 302.38L119.62 310.82Q119.62 319.91 114.88 324.46Q110.14 329 101.18 329L101.18 329ZM96.64 291.18L96.64 322.02L101.25 322.02Q106.69 322.02 109.31 319.21Q111.94 316.39 111.94 311.08L111.94 311.08L111.94 302.18Q111.94 296.74 109.31 293.96Q106.69 291.18 101.25 291.18L101.25 291.18L96.64 291.18ZM140.31 329.90L140.31 329.90Q135.57 329.90 131.83 327.94Q128.08 325.99 125.94 322.38Q123.80 318.76 123.80 313.70L123.80 313.70L123.80 312.68Q123.80 307.62 125.94 303.98Q128.08 300.33 131.83 298.41Q135.57 296.49 140.31 296.49L140.31 296.49Q145.04 296.49 148.76 298.41Q152.47 300.33 154.61 303.98Q156.76 307.62 156.76 312.68L156.76 312.68L156.76 313.70Q156.76 318.76 154.61 322.38Q152.47 325.99 148.76 327.94Q145.04 329.90 140.31 329.90ZM140.31 323.37L140.31 323.37Q144.34 323.37 146.90 320.78Q149.46 318.18 149.46 313.51L149.46 313.51L149.46 312.87Q149.46 308.20 146.90 305.61Q144.34 303.02 140.31 303.02L140.31 303.02Q136.28 303.02 133.72 305.61Q131.16 308.20 131.16 312.87L131.16 312.87L131.16 313.51Q131.16 318.18 133.72 320.78Q136.28 323.37 140.31 323.37ZM177.45 329.90L177.45 329.90Q172.84 329.90 169.13 327.98Q165.42 326.06 163.27 322.41Q161.13 318.76 161.13 313.64L161.13 313.64L161.13 312.74Q161.13 307.62 163.27 303.98Q165.42 300.33 169.13 298.41Q172.84 296.49 177.45 296.49L177.45 296.49Q181.99 296.49 185.22 298.09Q188.46 299.69 190.44 302.47Q192.42 305.26 193 308.71L193 308.71L185.90 310.18Q185.64 308.20 184.68 306.57Q183.72 304.94 181.96 303.98Q180.20 303.02 177.64 303.02L177.64 303.02Q175.02 303.02 172.94 304.14Q170.86 305.26 169.67 307.50Q168.49 309.74 168.49 312.87L168.49 312.87L168.49 313.51Q168.49 316.65 169.67 318.86Q170.86 321.06 172.94 322.22Q175.02 323.37 177.64 323.37L177.64 323.37Q181.54 323.37 183.56 321.35Q185.58 319.34 186.09 316.14L186.09 316.14L193.19 317.80Q192.42 321.13 190.44 323.88Q188.46 326.63 185.22 328.26Q181.99 329.90 177.45 329.90ZM205.82 329L198.46 329L198.46 284.20L205.82 284.20L205.82 309.35L206.91 309.35L218.30 297.38L227.96 297.38L212.67 312.68L228.48 329L218.94 329L206.91 316.14L205.82 316.14L205.82 329ZM246.74 329.90L246.74 329.90Q242 329.90 238.38 327.88Q234.77 325.86 232.75 322.18Q230.74 318.50 230.74 313.58L230.74 313.58L230.74 312.81Q230.74 307.82 232.72 304.17Q234.70 300.52 238.29 298.50Q241.87 296.49 246.54 296.49L246.54 296.49Q251.15 296.49 254.61 298.50Q258.06 300.52 259.98 304.17Q261.90 307.82 261.90 312.68L261.90 312.68L261.90 315.30L238.16 315.30Q238.29 319.02 240.78 321.26Q243.28 323.50 246.93 323.50L246.93 323.50Q250.51 323.50 252.24 321.93Q253.97 320.36 254.86 318.38L254.86 318.38L260.94 321.51Q260.05 323.24 258.35 325.19Q256.66 327.14 253.84 328.52Q251.02 329.90 246.74 329.90ZM238.22 309.74L238.22 309.74L254.42 309.74Q254.16 306.60 252.02 304.74Q249.87 302.89 246.48 302.89L246.48 302.89Q242.96 302.89 240.85 304.74Q238.74 306.60 238.22 309.74ZM274.92 329L267.56 329L267.56 297.38L274.79 297.38L274.79 301.03L275.88 301.03Q276.58 299.05 278.24 298.15Q279.91 297.26 282.21 297.26L282.21 297.26L286.05 297.26L286.05 303.78L282.08 303.78Q278.88 303.78 276.90 305.48Q274.92 307.18 274.92 310.70L274.92 310.70L274.92 329ZM319.88 329.90L319.88 329.90Q315.28 329.90 311.56 327.98Q307.85 326.06 305.71 322.41Q303.56 318.76 303.56 313.64L303.56 313.64L303.56 312.74Q303.56 307.62 305.71 303.98Q307.85 300.33 311.56 298.41Q315.28 296.49 319.88 296.49L319.88 296.49Q324.43 296.49 327.66 298.09Q330.89 299.69 332.88 302.47Q334.86 305.26 335.44 308.71L335.44 308.71L328.33 310.18Q328.08 308.20 327.12 306.57Q326.16 304.94 324.40 303.98Q322.64 303.02 320.08 303.02L320.08 303.02Q317.45 303.02 315.37 304.14Q313.29 305.26 312.11 307.50Q310.92 309.74 310.92 312.87L310.92 312.87L310.92 313.51Q310.92 316.65 312.11 318.86Q313.29 321.06 315.37 322.22Q317.45 323.37 320.08 323.37L320.08 323.37Q323.98 323.37 326.00 321.35Q328.01 319.34 328.52 316.14L328.52 316.14L335.63 317.80Q334.86 321.13 332.88 323.88Q330.89 326.63 327.66 328.26Q324.43 329.90 319.88 329.90ZM355.87 329.90L355.87 329.90Q351.14 329.90 347.39 327.94Q343.65 325.99 341.50 322.38Q339.36 318.76 339.36 313.70L339.36 313.70L339.36 312.68Q339.36 307.62 341.50 303.98Q343.65 300.33 347.39 298.41Q351.14 296.49 355.87 296.49L355.87 296.49Q360.61 296.49 364.32 298.41Q368.03 300.33 370.18 303.98Q372.32 307.62 372.32 312.68L372.32 312.68L372.32 313.70Q372.32 318.76 370.18 322.38Q368.03 325.99 364.32 327.94Q360.61 329.90 355.87 329.90ZM355.87 323.37L355.87 323.37Q359.90 323.37 362.46 320.78Q365.02 318.18 365.02 313.51L365.02 313.51L365.02 312.87Q365.02 308.20 362.46 305.61Q359.90 303.02 355.87 303.02L355.87 303.02Q351.84 303.02 349.28 305.61Q346.72 308.20 346.72 312.87L346.72 312.87L346.72 313.51Q346.72 318.18 349.28 320.78Q351.84 323.37 355.87 323.37ZM385.59 329L378.23 329L378.23 297.38L385.46 297.38L385.46 301.80L386.55 301.80Q387.38 300.01 389.56 298.41Q391.73 296.81 396.15 296.81L396.15 296.81Q399.80 296.81 402.61 298.47Q405.43 300.14 407.00 303.08Q408.56 306.02 408.56 310.06L408.56 310.06L408.56 329L401.20 329L401.20 310.63Q401.20 306.79 399.32 304.90Q397.43 303.02 393.97 303.02L393.97 303.02Q390.07 303.02 387.83 305.61Q385.59 308.20 385.59 313L385.59 313L385.59 329ZM436.49 329L427.72 329Q424.65 329 422.82 327.18Q421 325.35 421 322.22L421 322.22L421 303.46L412.74 303.46L412.74 297.38L421 297.38L421 287.21L428.36 287.21L428.36 297.38L437.45 297.38L437.45 303.46L428.36 303.46L428.36 321Q428.36 322.92 430.15 322.92L430.15 322.92L436.49 322.92L436.49 329ZM452.83 329.90L452.83 329.90Q449.50 329.90 446.81 328.71Q444.12 327.53 442.56 325.29Q440.99 323.05 440.99 319.78L440.99 319.78Q440.99 316.58 442.56 314.41Q444.12 312.23 446.88 311.11Q449.63 309.99 453.15 309.99L453.15 309.99L462.30 309.99L462.30 308.07Q462.30 305.58 460.76 304.01Q459.23 302.44 455.96 302.44L455.96 302.44Q452.76 302.44 451.13 303.94Q449.50 305.45 448.99 307.82L448.99 307.82L442.20 305.58Q442.97 303.08 444.67 301.03Q446.36 298.98 449.18 297.74Q452.00 296.49 456.09 296.49L456.09 296.49Q462.30 296.49 465.85 299.59Q469.40 302.70 469.40 308.58L469.40 308.58L469.40 321Q469.40 322.92 471.20 322.92L471.20 322.92L473.88 322.92L473.88 329L468.70 329Q466.40 329 464.92 327.85Q463.45 326.70 463.45 324.71L463.45 324.71L463.45 324.58L462.36 324.58Q461.98 325.48 461.02 326.76Q460.06 328.04 458.11 328.97Q456.16 329.90 452.83 329.90ZM454.04 323.88L454.04 323.88Q457.69 323.88 460.00 321.80Q462.30 319.72 462.30 316.20L462.30 316.20L462.30 315.56L453.60 315.56Q451.23 315.56 449.76 316.58Q448.28 317.61 448.28 319.59L448.28 319.59Q448.28 321.51 449.82 322.70Q451.36 323.88 454.04 323.88ZM485.42 329L478.06 329L478.06 297.38L485.42 297.38L485.42 329ZM481.71 293.35L481.71 293.35Q479.73 293.35 478.29 292.04Q476.85 290.73 476.85 288.55L476.85 288.55Q476.85 286.38 478.29 285.06Q479.73 283.75 481.71 283.75L481.71 283.75Q483.82 283.75 485.20 285.06Q486.58 286.38 486.58 288.55L486.58 288.55Q486.58 290.73 485.20 292.04Q483.82 293.35 481.71 293.35ZM500.23 329L492.87 329L492.87 297.38L500.10 297.38L500.10 301.80L501.19 301.80Q502.02 300.01 504.20 298.41Q506.37 296.81 510.79 296.81L510.79 296.81Q514.44 296.81 517.25 298.47Q520.07 300.14 521.64 303.08Q523.20 306.02 523.20 310.06L523.20 310.06L523.20 329L515.84 329L515.84 310.63Q515.84 306.79 513.96 304.90Q512.07 303.02 508.61 303.02L508.61 303.02Q504.71 303.02 502.47 305.61Q500.23 308.20 500.23 313L500.23 313L500.23 329ZM544.79 329.90L544.79 329.90Q540.06 329.90 536.44 327.88Q532.82 325.86 530.81 322.18Q528.79 318.50 528.79 313.58L528.79 313.58L528.79 312.81Q528.79 307.82 530.78 304.17Q532.76 300.52 536.34 298.50Q539.93 296.49 544.60 296.49L544.60 296.49Q549.21 296.49 552.66 298.50Q556.12 300.52 558.04 304.17Q559.96 307.82 559.96 312.68L559.96 312.68L559.96 315.30L536.22 315.30Q536.34 319.02 538.84 321.26Q541.34 323.50 544.98 323.50L544.98 323.50Q548.57 323.50 550.30 321.93Q552.02 320.36 552.92 318.38L552.92 318.38L559.00 321.51Q558.10 323.24 556.41 325.19Q554.71 327.14 551.90 328.52Q549.08 329.90 544.79 329.90ZM536.28 309.74L536.28 309.74L552.47 309.74Q552.22 306.60 550.07 304.74Q547.93 302.89 544.54 302.89L544.54 302.89Q541.02 302.89 538.90 304.74Q536.79 306.60 536.28 309.74ZM572.97 329L565.61 329L565.61 297.38L572.84 297.38L572.84 301.03L573.93 301.03Q574.64 299.05 576.30 298.15Q577.96 297.26 580.27 297.26L580.27 297.26L584.11 297.26L584.11 303.78L580.14 303.78Q576.94 303.78 574.96 305.48Q572.97 307.18 572.97 310.70L572.97 310.70L572.97 329ZM593.28 329.90L593.28 329.90Q590.85 329.90 589.22 328.30Q587.58 326.70 587.58 324.20L587.58 324.20Q587.58 321.77 589.22 320.17Q590.85 318.57 593.28 318.57L593.28 318.57Q595.71 318.57 597.31 320.17Q598.91 321.77 598.91 324.26L598.91 324.26Q598.91 326.76 597.31 328.33Q595.71 329.90 593.28 329.90Z" fill="#F7F3EC"></path><path d="M88.02 385.34L88.02 385.34Q85.02 385.34 83.23 383.60Q81.44 381.86 81.44 378.52L81.44 378.52L81.44 374.68Q81.44 371.34 83.23 369.60Q85.02 367.86 88.02 367.86L88.02 367.86Q91.04 367.86 92.83 369.60Q94.62 371.34 94.62 374.68L94.62 374.68L94.62 378.52Q94.62 381.86 92.83 383.60Q91.04 385.34 88.02 385.34ZM88.02 383.54L88.02 383.54Q90.20 383.54 91.40 382.23Q92.60 380.92 92.60 378.59L92.60 378.59L92.60 374.61Q92.60 372.28 91.40 370.97Q90.20 369.66 88.02 369.66L88.02 369.66Q85.86 369.66 84.66 370.97Q83.46 372.28 83.46 374.61L83.46 374.61L83.46 378.59Q83.46 380.92 84.66 382.23Q85.86 383.54 88.02 383.54ZM99.94 385L98.05 385L98.05 373.26L99.90 373.26L99.90 375.26L100.23 375.26Q100.62 374.42 101.54 373.73Q102.46 373.05 104.26 373.05L104.26 373.05Q105.58 373.05 106.63 373.60Q107.67 374.15 108.30 375.23Q108.92 376.31 108.92 377.90L108.92 377.90L108.92 385L107.02 385L107.02 378.04Q107.02 376.29 106.15 375.50Q105.27 374.70 103.78 374.70L103.78 374.70Q102.08 374.70 101.01 375.81Q99.94 376.91 99.94 379.10L99.94 379.10L99.94 385ZM118.14 385.34L118.14 385.34Q116.36 385.34 115.02 384.58Q113.67 383.82 112.93 382.46Q112.18 381.09 112.18 379.29L112.18 379.29L112.18 379Q112.18 377.18 112.93 375.81Q113.67 374.44 114.99 373.68Q116.31 372.93 118.02 372.93L118.02 372.93Q119.67 372.93 120.94 373.64Q122.22 374.34 122.94 375.66Q123.66 376.98 123.66 378.76L123.66 378.76L123.66 379.62L114.08 379.62Q114.15 381.52 115.30 382.59Q116.46 383.66 118.18 383.66L118.18 383.66Q119.70 383.66 120.51 382.96Q121.33 382.26 121.76 381.30L121.76 381.30L123.39 382.10Q123.03 382.84 122.40 383.58Q121.76 384.33 120.74 384.83Q119.72 385.34 118.14 385.34ZM114.10 378.06L114.10 378.06L121.74 378.06Q121.64 376.43 120.62 375.52Q119.60 374.61 118.02 374.61L118.02 374.61Q116.41 374.61 115.38 375.52Q114.34 376.43 114.10 378.06ZM138.54 385.34L138.54 385.34Q136.83 385.34 135.48 384.60Q134.12 383.87 133.34 382.50Q132.56 381.14 132.56 379.26L132.56 379.26L132.56 379Q132.56 377.10 133.34 375.75Q134.12 374.39 135.48 373.66Q136.83 372.93 138.54 372.93L138.54 372.93Q140.22 372.93 141.40 373.55Q142.59 374.18 143.28 375.21Q143.96 376.24 144.15 377.42L144.15 377.42L142.30 377.80Q142.18 376.94 141.74 376.22Q141.30 375.50 140.50 375.06Q139.71 374.63 138.56 374.63L138.56 374.63Q137.38 374.63 136.46 375.16Q135.54 375.69 135.00 376.67Q134.46 377.66 134.46 379.02L134.46 379.02L134.46 379.24Q134.46 380.61 135.00 381.59Q135.54 382.58 136.46 383.10Q137.38 383.63 138.56 383.63L138.56 383.63Q140.31 383.63 141.24 382.72Q142.16 381.81 142.38 380.46L142.38 380.46L144.25 380.87Q143.98 382.02 143.29 383.06Q142.59 384.09 141.40 384.71Q140.22 385.34 138.54 385.34ZM152.91 385.34L152.91 385.34Q151.14 385.34 149.78 384.59Q148.42 383.85 147.67 382.49Q146.91 381.14 146.91 379.29L146.91 379.29L146.91 378.98Q146.91 377.15 147.67 375.78Q148.42 374.42 149.78 373.67Q151.14 372.93 152.91 372.93L152.91 372.93Q154.69 372.93 156.04 373.67Q157.40 374.42 158.16 375.78Q158.91 377.15 158.91 378.98L158.91 378.98L158.91 379.29Q158.91 381.14 158.16 382.49Q157.40 383.85 156.04 384.59Q154.69 385.34 152.91 385.34ZM152.91 383.63L152.91 383.63Q154.78 383.63 155.90 382.44Q157.02 381.26 157.02 379.24L157.02 379.24L157.02 379.02Q157.02 377.01 155.90 375.82Q154.78 374.63 152.91 374.63L152.91 374.63Q151.06 374.63 149.94 375.82Q148.81 377.01 148.81 379.02L148.81 379.02L148.81 379.24Q148.81 381.26 149.94 382.44Q151.06 383.63 152.91 383.63ZM164.22 385L162.32 385L162.32 373.26L164.17 373.26L164.17 374.73L164.50 374.73Q164.84 374.10 165.61 373.58Q166.38 373.05 167.77 373.05L167.77 373.05Q169.14 373.05 169.99 373.65Q170.84 374.25 171.22 375.11L171.22 375.11L171.56 375.11Q171.97 374.25 172.80 373.65Q173.62 373.05 175.11 373.05L175.11 373.05Q176.29 373.05 177.18 373.53Q178.06 374.01 178.58 374.91Q179.10 375.81 179.10 377.06L179.10 377.06L179.10 385L177.20 385L177.20 377.22Q177.20 376.05 176.52 375.36Q175.83 374.68 174.61 374.68L174.61 374.68Q173.31 374.68 172.48 375.52Q171.66 376.36 171.66 377.94L171.66 377.94L171.66 385L169.76 385L169.76 377.22Q169.76 376.05 169.08 375.36Q168.39 374.68 167.17 374.68L167.17 374.68Q165.87 374.68 165.04 375.52Q164.22 376.36 164.22 377.94L164.22 377.94L164.22 385ZM184.86 385L182.96 385L182.96 373.26L184.81 373.26L184.81 374.73L185.14 374.73Q185.48 374.10 186.25 373.58Q187.02 373.05 188.41 373.05L188.41 373.05Q189.78 373.05 190.63 373.65Q191.48 374.25 191.86 375.11L191.86 375.11L192.20 375.11Q192.61 374.25 193.44 373.65Q194.26 373.05 195.75 373.05L195.75 373.05Q196.93 373.05 197.82 373.53Q198.70 374.01 199.22 374.91Q199.74 375.81 199.74 377.06L199.74 377.06L199.74 385L197.84 385L197.84 377.22Q197.84 376.05 197.16 375.36Q196.47 374.68 195.25 374.68L195.25 374.68Q193.95 374.68 193.12 375.52Q192.30 376.36 192.30 377.94L192.30 377.94L192.30 385L190.40 385L190.40 377.22Q190.40 376.05 189.72 375.36Q189.03 374.68 187.81 374.68L187.81 374.68Q186.51 374.68 185.68 375.52Q184.86 376.36 184.86 377.94L184.86 377.94L184.86 385ZM207.20 385.34L207.20 385.34Q205.98 385.34 204.97 384.90Q203.96 384.47 203.38 383.66Q202.81 382.84 202.81 381.66L202.81 381.66Q202.81 380.46 203.38 379.68Q203.96 378.90 204.97 378.51Q205.98 378.11 207.22 378.11L207.22 378.11L211.18 378.11L211.18 377.25Q211.18 376 210.45 375.28Q209.72 374.56 208.28 374.56L208.28 374.56Q206.86 374.56 206.07 375.24Q205.28 375.93 204.99 377.08L204.99 377.08L203.22 376.50Q203.50 375.52 204.13 374.72Q204.75 373.91 205.80 373.42Q206.84 372.93 208.30 372.93L208.30 372.93Q210.56 372.93 211.81 374.09Q213.06 375.26 213.06 377.37L213.06 377.37L213.06 382.67Q213.06 383.39 213.73 383.39L213.73 383.39L214.81 383.39L214.81 385L213.15 385Q212.36 385 211.88 384.56Q211.40 384.11 211.40 383.37L211.40 383.37L211.40 383.25L211.11 383.25Q210.85 383.70 210.40 384.20Q209.96 384.69 209.19 385.01Q208.42 385.34 207.20 385.34ZM207.42 383.70L207.42 383.70Q209.10 383.70 210.14 382.71Q211.18 381.71 211.18 379.91L211.18 379.91L211.18 379.65L207.30 379.65Q206.17 379.65 205.44 380.14Q204.70 380.63 204.70 381.62L204.70 381.62Q204.70 382.60 205.46 383.15Q206.22 383.70 207.42 383.70ZM219.30 385L217.40 385L217.40 373.26L219.25 373.26L219.25 375.26L219.58 375.26Q219.97 374.42 220.89 373.73Q221.82 373.05 223.62 373.05L223.62 373.05Q224.94 373.05 225.98 373.60Q227.02 374.15 227.65 375.23Q228.27 376.31 228.27 377.90L228.27 377.90L228.27 385L226.38 385L226.38 378.04Q226.38 376.29 225.50 375.50Q224.62 374.70 223.14 374.70L223.14 374.70Q221.43 374.70 220.36 375.81Q219.30 376.91 219.30 379.10L219.30 379.10L219.30 385ZM237.08 385.34L237.08 385.34Q235.57 385.34 234.30 384.62Q233.02 383.90 232.28 382.53Q231.54 381.16 231.54 379.29L231.54 379.29L231.54 378.98Q231.54 377.10 232.28 375.75Q233.02 374.39 234.28 373.66Q235.54 372.93 237.08 372.93L237.08 372.93Q238.30 372.93 239.16 373.25Q240.01 373.58 240.54 374.07Q241.06 374.56 241.35 375.11L241.35 375.11L241.69 375.11L241.69 368.20L243.58 368.20L243.58 385L241.74 385L241.74 383.06L241.40 383.06Q240.92 383.94 239.91 384.64Q238.90 385.34 237.08 385.34ZM237.58 383.66L237.58 383.66Q239.41 383.66 240.55 382.49Q241.69 381.33 241.69 379.24L241.69 379.24L241.69 379.02Q241.69 376.94 240.55 375.77Q239.41 374.61 237.58 374.61L237.58 374.61Q235.78 374.61 234.62 375.77Q233.46 376.94 233.46 379.02L233.46 379.02L233.46 379.24Q233.46 381.33 234.62 382.49Q235.78 383.66 237.58 383.66ZM255.63 385L253.74 385L253.74 373.26L255.58 373.26L255.58 374.73L255.92 374.73Q256.26 374.10 257.02 373.58Q257.79 373.05 259.18 373.05L259.18 373.05Q260.55 373.05 261.40 373.65Q262.26 374.25 262.64 375.11L262.64 375.11L262.98 375.11Q263.38 374.25 264.21 373.65Q265.04 373.05 266.53 373.05L266.53 373.05Q267.70 373.05 268.59 373.53Q269.48 374.01 270.00 374.91Q270.51 375.81 270.51 377.06L270.51 377.06L270.51 385L268.62 385L268.62 377.22Q268.62 376.05 267.93 375.36Q267.25 374.68 266.02 374.68L266.02 374.68Q264.73 374.68 263.90 375.52Q263.07 376.36 263.07 377.94L263.07 377.94L263.07 385L261.18 385L261.18 377.22Q261.18 376.05 260.49 375.36Q259.81 374.68 258.58 374.68L258.58 374.68Q257.29 374.68 256.46 375.52Q255.63 376.36 255.63 377.94L255.63 377.94L255.63 385ZM279.80 385.34L279.80 385.34Q278.02 385.34 276.67 384.59Q275.31 383.85 274.56 382.49Q273.80 381.14 273.80 379.29L273.80 379.29L273.80 378.98Q273.80 377.15 274.56 375.78Q275.31 374.42 276.67 373.67Q278.02 372.93 279.80 372.93L279.80 372.93Q281.58 372.93 282.93 373.67Q284.29 374.42 285.04 375.78Q285.80 377.15 285.80 378.98L285.80 378.98L285.80 379.29Q285.80 381.14 285.04 382.49Q284.29 383.85 282.93 384.59Q281.58 385.34 279.80 385.34ZM279.80 383.63L279.80 383.63Q281.67 383.63 282.79 382.44Q283.90 381.26 283.90 379.24L283.90 379.24L283.90 379.02Q283.90 377.01 282.79 375.82Q281.67 374.63 279.80 374.63L279.80 374.63Q277.95 374.63 276.82 375.82Q275.70 377.01 275.70 379.02L275.70 379.02L275.70 379.24Q275.70 381.26 276.82 382.44Q277.95 383.63 279.80 383.63ZM293.70 385.22L293.70 385.22Q292.42 385.22 291.36 384.66Q290.29 384.11 289.68 383.02Q289.06 381.93 289.06 380.37L289.06 380.37L289.06 373.26L290.96 373.26L290.96 380.22Q290.96 381.98 291.84 382.77Q292.71 383.56 294.20 383.56L294.20 383.56Q295.88 383.56 296.96 382.46Q298.04 381.35 298.04 379.17L298.04 379.17L298.04 373.26L299.94 373.26L299.94 385L298.09 385L298.09 383.01L297.75 383.01Q297.37 383.85 296.43 384.53Q295.50 385.22 293.70 385.22ZM305.79 385L303.90 385L303.90 373.26L305.74 373.26L305.74 375.26L306.08 375.26Q306.46 374.42 307.39 373.73Q308.31 373.05 310.11 373.05L310.11 373.05Q311.43 373.05 312.48 373.60Q313.52 374.15 314.14 375.23Q314.77 376.31 314.77 377.90L314.77 377.90L314.77 385L312.87 385L312.87 378.04Q312.87 376.29 312.00 375.50Q311.12 374.70 309.63 374.70L309.63 374.70Q307.93 374.70 306.86 375.81Q305.79 376.91 305.79 379.10L305.79 379.10L305.79 385ZM326.05 385L322.93 385Q321.92 385 321.38 384.45Q320.84 383.90 320.84 382.94L320.84 382.94L320.84 374.92L317.31 374.92L317.31 373.26L320.84 373.26L320.84 369.09L322.74 369.09L322.74 373.26L326.58 373.26L326.58 374.92L322.74 374.92L322.74 382.65Q322.74 383.37 323.43 383.37L323.43 383.37L326.05 383.37L326.05 385ZM334.38 385.34L334.38 385.34Q332.19 385.34 330.69 384.33Q329.19 383.32 328.88 381.14L328.88 381.14L330.68 380.73Q330.87 381.88 331.40 382.54Q331.93 383.20 332.71 383.48Q333.49 383.75 334.38 383.75L334.38 383.75Q335.70 383.75 336.46 383.22Q337.23 382.70 337.23 381.81L337.23 381.81Q337.23 380.90 336.50 380.52Q335.77 380.15 334.50 379.91L334.50 379.91L333.51 379.74Q332.38 379.55 331.45 379.14Q330.51 378.74 329.96 378.04Q329.41 377.34 329.41 376.29L329.41 376.29Q329.41 374.70 330.63 373.82Q331.86 372.93 333.87 372.93L333.87 372.93Q335.86 372.93 337.10 373.83Q338.34 374.73 338.70 376.36L338.70 376.36L336.92 376.82Q336.70 375.54 335.89 375.03Q335.07 374.51 333.87 374.51L333.87 374.51Q332.67 374.51 331.98 374.96Q331.28 375.40 331.28 376.26L331.28 376.26Q331.28 377.10 331.94 377.50Q332.60 377.90 333.70 378.09L333.70 378.09L334.69 378.26Q335.94 378.47 336.93 378.84Q337.93 379.22 338.52 379.91Q339.10 380.61 339.10 381.74L339.10 381.74Q339.10 383.46 337.82 384.40Q336.54 385.34 334.38 385.34ZM357.08 389.80L349.88 389.80L349.88 388.12L356.60 388.12Q357.30 388.12 357.30 387.40L357.30 387.40L357.30 383.13L356.96 383.13Q356.72 383.63 356.23 384.12Q355.74 384.62 354.94 384.92Q354.15 385.22 352.95 385.22L352.95 385.22Q351.68 385.22 350.61 384.66Q349.54 384.11 348.93 383.03Q348.32 381.95 348.32 380.39L348.32 380.39L348.32 373.26L350.22 373.26L350.22 380.25Q350.22 381.98 351.09 382.77Q351.97 383.56 353.46 383.56L353.46 383.56Q355.14 383.56 356.22 382.46Q357.30 381.35 357.30 379.17L357.30 379.17L357.30 373.26L359.19 373.26L359.19 387.74Q359.19 388.70 358.65 389.25Q358.11 389.80 357.08 389.80L357.08 389.80ZM368.58 385.34L368.58 385.34Q366.80 385.34 365.44 384.59Q364.09 383.85 363.33 382.49Q362.58 381.14 362.58 379.29L362.58 379.29L362.58 378.98Q362.58 377.15 363.33 375.78Q364.09 374.42 365.44 373.67Q366.80 372.93 368.58 372.93L368.58 372.93Q370.35 372.93 371.71 373.67Q373.06 374.42 373.82 375.78Q374.58 377.15 374.58 378.98L374.58 378.98L374.58 379.29Q374.58 381.14 373.82 382.49Q373.06 383.85 371.71 384.59Q370.35 385.34 368.58 385.34ZM368.58 383.63L368.58 383.63Q370.45 383.63 371.56 382.44Q372.68 381.26 372.68 379.24L372.68 379.24L372.68 379.02Q372.68 377.01 371.56 375.82Q370.45 374.63 368.58 374.63L368.58 374.63Q366.73 374.63 365.60 375.82Q364.47 377.01 364.47 379.02L364.47 379.02L364.47 379.24Q364.47 381.26 365.60 382.44Q366.73 383.63 368.58 383.63ZM382.47 385.22L382.47 385.22Q381.20 385.22 380.13 384.66Q379.06 384.11 378.45 383.02Q377.84 381.93 377.84 380.37L377.84 380.37L377.84 373.26L379.74 373.26L379.74 380.22Q379.74 381.98 380.61 382.77Q381.49 383.56 382.98 383.56L382.98 383.56Q384.66 383.56 385.74 382.46Q386.82 381.35 386.82 379.17L386.82 379.17L386.82 373.26L388.71 373.26L388.71 385L386.86 385L386.86 383.01L386.53 383.01Q386.14 383.85 385.21 384.53Q384.27 385.22 382.47 385.22ZM394.57 385L392.67 385L392.67 373.26L394.52 373.26L394.52 374.70L394.86 374.70Q395.17 373.94 395.82 373.58Q396.46 373.22 397.52 373.22L397.52 373.22L398.91 373.22L398.91 374.94L397.40 374.94Q396.13 374.94 395.35 375.65Q394.57 376.36 394.57 377.85L394.57 377.85L394.57 385ZM412.76 385L409.52 385L407.17 373.26L409.09 373.26L411.03 383.73L411.37 383.73L413.94 373.26L417.08 373.26L419.65 383.73L419.98 383.73L421.93 373.26L423.85 373.26L421.50 385L418.26 385L415.66 374.54L415.35 374.54L412.76 385ZM432.54 385.34L432.54 385.34Q430.76 385.34 429.40 384.59Q428.05 383.85 427.29 382.49Q426.54 381.14 426.54 379.29L426.54 379.29L426.54 378.98Q426.54 377.15 427.29 375.78Q428.05 374.42 429.40 373.67Q430.76 372.93 432.54 372.93L432.54 372.93Q434.31 372.93 435.67 373.67Q437.02 374.42 437.78 375.78Q438.54 377.15 438.54 378.98L438.54 378.98L438.54 379.29Q438.54 381.14 437.78 382.49Q437.02 383.85 435.67 384.59Q434.31 385.34 432.54 385.34ZM432.54 383.63L432.54 383.63Q434.41 383.63 435.52 382.44Q436.64 381.26 436.64 379.24L436.64 379.24L436.64 379.02Q436.64 377.01 435.52 375.82Q434.41 374.63 432.54 374.63L432.54 374.63Q430.69 374.63 429.56 375.82Q428.43 377.01 428.43 379.02L428.43 379.02L428.43 379.24Q428.43 381.26 429.56 382.44Q430.69 383.63 432.54 383.63ZM443.84 385L441.94 385L441.94 373.26L443.79 373.26L443.79 374.70L444.13 374.70Q444.44 373.94 445.09 373.58Q445.74 373.22 446.79 373.22L446.79 373.22L448.18 373.22L448.18 374.94L446.67 374.94Q445.40 374.94 444.62 375.65Q443.84 376.36 443.84 377.85L443.84 377.85L443.84 385ZM452.89 385L450.99 385L450.99 368.20L452.89 368.20L452.89 378.09L453.22 378.09L458.60 373.26L461.24 373.26L454.74 378.98L461.43 385L458.82 385L453.22 379.89L452.89 379.89L452.89 385ZM465.80 385L463.90 385L463.90 373.26L465.80 373.26L465.80 385ZM464.86 371.44L464.86 371.44Q464.24 371.44 463.82 371.03Q463.40 370.62 463.40 370L463.40 370Q463.40 369.35 463.82 368.94Q464.24 368.54 464.86 368.54L464.86 368.54Q465.49 368.54 465.90 368.94Q466.30 369.35 466.30 370L466.30 370Q466.30 370.62 465.90 371.03Q465.49 371.44 464.86 371.44ZM471.68 385L469.78 385L469.78 373.26L471.63 373.26L471.63 375.26L471.97 375.26Q472.35 374.42 473.28 373.73Q474.20 373.05 476 373.05L476 373.05Q477.32 373.05 478.36 373.60Q479.41 374.15 480.03 375.23Q480.66 376.31 480.66 377.90L480.66 377.90L480.66 385L478.76 385L478.76 378.04Q478.76 376.29 477.88 375.50Q477.01 374.70 475.52 374.70L475.52 374.70Q473.82 374.70 472.75 375.81Q471.68 376.91 471.68 379.10L471.68 379.10L471.68 385ZM483.92 379.19L483.92 379.19L483.92 378.86Q483.92 377.01 484.66 375.69Q485.41 374.37 486.68 373.65Q487.95 372.93 489.46 372.93L489.46 372.93Q491.31 372.93 492.31 373.64Q493.30 374.34 493.78 375.21L493.78 375.21L494.12 375.21L494.12 373.26L495.92 373.26L495.92 387.74Q495.92 388.70 495.39 389.25Q494.86 389.80 493.86 389.80L493.86 389.80L485.89 389.80L485.89 388.12L493.35 388.12Q494.07 388.12 494.07 387.40L494.07 387.40L494.07 382.94L493.74 382.94Q493.45 383.46 492.92 383.97Q492.39 384.47 491.55 384.80Q490.71 385.12 489.46 385.12L489.46 385.12Q487.95 385.12 486.68 384.40Q485.41 383.68 484.66 382.35Q483.92 381.02 483.92 379.19ZM489.97 383.44L489.97 383.44Q491.79 383.44 492.93 382.29Q494.07 381.14 494.07 379.12L494.07 379.12L494.07 378.93Q494.07 376.89 492.93 375.75Q491.79 374.61 489.97 374.61L489.97 374.61Q488.17 374.61 487.00 375.75Q485.84 376.89 485.84 378.93L485.84 378.93L485.84 379.12Q485.84 381.14 487.00 382.29Q488.17 383.44 489.97 383.44ZM511.04 385.34L511.04 385.34Q509.53 385.34 508.26 384.62Q506.98 383.90 506.24 382.53Q505.50 381.16 505.50 379.29L505.50 379.29L505.50 378.98Q505.50 377.10 506.24 375.75Q506.98 374.39 508.24 373.66Q509.50 372.93 511.04 372.93L511.04 372.93Q512.26 372.93 513.12 373.25Q513.97 373.58 514.50 374.07Q515.02 374.56 515.31 375.11L515.31 375.11L515.65 375.11L515.65 368.20L517.54 368.20L517.54 385L515.70 385L515.70 383.06L515.36 383.06Q514.88 383.94 513.87 384.64Q512.86 385.34 511.04 385.34ZM511.54 383.66L511.54 383.66Q513.37 383.66 514.51 382.49Q515.65 381.33 515.65 379.24L515.65 379.24L515.65 379.02Q515.65 376.94 514.51 375.77Q513.37 374.61 511.54 374.61L511.54 374.61Q509.74 374.61 508.58 375.77Q507.42 376.94 507.42 379.02L507.42 379.02L507.42 379.24Q507.42 381.33 508.58 382.49Q509.74 383.66 511.54 383.66ZM523.42 385L521.53 385L521.53 373.26L523.42 373.26L523.42 385ZM522.49 371.44L522.49 371.44Q521.86 371.44 521.44 371.03Q521.02 370.62 521.02 370L521.02 370Q521.02 369.35 521.44 368.94Q521.86 368.54 522.49 368.54L522.49 368.54Q523.11 368.54 523.52 368.94Q523.93 369.35 523.93 370L523.93 370Q523.93 370.62 523.52 371.03Q523.11 371.44 522.49 371.44ZM529.30 385L527.41 385L527.41 373.26L529.26 373.26L529.26 374.70L529.59 374.70Q529.90 373.94 530.55 373.58Q531.20 373.22 532.26 373.22L532.26 373.22L533.65 373.22L533.65 374.94L532.14 374.94Q530.86 374.94 530.08 375.65Q529.30 376.36 529.30 377.85L529.30 377.85L529.30 385ZM541.83 385.34L541.83 385.34Q540.06 385.34 538.71 384.58Q537.37 383.82 536.62 382.46Q535.88 381.09 535.88 379.29L535.88 379.29L535.88 379Q535.88 377.18 536.62 375.81Q537.37 374.44 538.69 373.68Q540.01 372.93 541.71 372.93L541.71 372.93Q543.37 372.93 544.64 373.64Q545.91 374.34 546.63 375.66Q547.35 376.98 547.35 378.76L547.35 378.76L547.35 379.62L537.78 379.62Q537.85 381.52 539.00 382.59Q540.15 383.66 541.88 383.66L541.88 383.66Q543.39 383.66 544.21 382.96Q545.02 382.26 545.46 381.30L545.46 381.30L547.09 382.10Q546.73 382.84 546.09 383.58Q545.46 384.33 544.44 384.83Q543.42 385.34 541.83 385.34ZM537.80 378.06L537.80 378.06L545.43 378.06Q545.34 376.43 544.32 375.52Q543.30 374.61 541.71 374.61L541.71 374.61Q540.10 374.61 539.07 375.52Q538.04 376.43 537.80 378.06ZM556.06 385.34L556.06 385.34Q554.36 385.34 553.00 384.60Q551.65 383.87 550.87 382.50Q550.09 381.14 550.09 379.26L550.09 379.26L550.09 379Q550.09 377.10 550.87 375.75Q551.65 374.39 553.00 373.66Q554.36 372.93 556.06 372.93L556.06 372.93Q557.74 372.93 558.93 373.55Q560.12 374.18 560.80 375.21Q561.49 376.24 561.68 377.42L561.68 377.42L559.83 377.80Q559.71 376.94 559.27 376.22Q558.82 375.50 558.03 375.06Q557.24 374.63 556.09 374.63L556.09 374.63Q554.91 374.63 553.99 375.16Q553.06 375.69 552.52 376.67Q551.98 377.66 551.98 379.02L551.98 379.02L551.98 379.24Q551.98 380.61 552.52 381.59Q553.06 382.58 553.99 383.10Q554.91 383.63 556.09 383.63L556.09 383.63Q557.84 383.63 558.76 382.72Q559.69 381.81 559.90 380.46L559.90 380.46L561.78 380.87Q561.51 382.02 560.82 383.06Q560.12 384.09 558.93 384.71Q557.74 385.34 556.06 385.34ZM572.46 385L569.34 385Q568.33 385 567.79 384.45Q567.25 383.90 567.25 382.94L567.25 382.94L567.25 374.92L563.72 374.92L563.72 373.26L567.25 373.26L567.25 369.09L569.14 369.09L569.14 373.26L572.98 373.26L572.98 374.92L569.14 374.92L569.14 382.65Q569.14 383.37 569.84 383.37L569.84 383.37L572.46 383.37L572.46 385ZM581.48 385.34L581.48 385.34Q579.70 385.34 578.35 384.59Q576.99 383.85 576.24 382.49Q575.48 381.14 575.48 379.29L575.48 379.29L575.48 378.98Q575.48 377.15 576.24 375.78Q576.99 374.42 578.35 373.67Q579.70 372.93 581.48 372.93L581.48 372.93Q583.26 372.93 584.61 373.67Q585.97 374.42 586.72 375.78Q587.48 377.15 587.48 378.98L587.48 378.98L587.48 379.29Q587.48 381.14 586.72 382.49Q585.97 383.85 584.61 384.59Q583.26 385.34 581.48 385.34ZM581.48 383.63L581.48 383.63Q583.35 383.63 584.47 382.44Q585.58 381.26 585.58 379.24L585.58 379.24L585.58 379.02Q585.58 377.01 584.47 375.82Q583.35 374.63 581.48 374.63L581.48 374.63Q579.63 374.63 578.50 375.82Q577.38 377.01 577.38 379.02L577.38 379.02L577.38 379.24Q577.38 381.26 578.50 382.44Q579.63 383.63 581.48 383.63ZM592.78 385L590.89 385L590.89 373.26L592.74 373.26L592.74 374.70L593.07 374.70Q593.38 373.94 594.03 373.58Q594.68 373.22 595.74 373.22L595.74 373.22L597.13 373.22L597.13 374.94L595.62 374.94Q594.34 374.94 593.56 375.65Q592.78 376.36 592.78 377.85L592.78 377.85L592.78 385ZM608.55 389.80L601.35 389.80L601.35 388.12L608.07 388.12Q608.77 388.12 608.77 387.40L608.77 387.40L608.77 383.13L608.43 383.13Q608.19 383.63 607.70 384.12Q607.21 384.62 606.42 384.92Q605.62 385.22 604.42 385.22L604.42 385.22Q603.15 385.22 602.08 384.66Q601.02 384.11 600.40 383.03Q599.79 381.95 599.79 380.39L599.79 380.39L599.79 373.26L601.69 373.26L601.69 380.25Q601.69 381.98 602.56 382.77Q603.44 383.56 604.93 383.56L604.93 383.56Q606.61 383.56 607.69 382.46Q608.77 381.35 608.77 379.17L608.77 379.17L608.77 373.26L610.66 373.26L610.66 387.74Q610.66 388.70 610.12 389.25Q609.58 389.80 608.55 389.80L608.55 389.80ZM624.39 385.34L624.39 385.34Q623.17 385.34 622.16 384.90Q621.15 384.47 620.58 383.66Q620.00 382.84 620.00 381.66L620.00 381.66Q620.00 380.46 620.58 379.68Q621.15 378.90 622.16 378.51Q623.17 378.11 624.42 378.11L624.42 378.11L628.38 378.11L628.38 377.25Q628.38 376 627.64 375.28Q626.91 374.56 625.47 374.56L625.47 374.56Q624.06 374.56 623.26 375.24Q622.47 375.93 622.18 377.08L622.18 377.08L620.41 376.50Q620.70 375.52 621.32 374.72Q621.94 373.91 622.99 373.42Q624.03 372.93 625.50 372.93L625.50 372.93Q627.75 372.93 629.00 374.09Q630.25 375.26 630.25 377.37L630.25 377.37L630.25 382.67Q630.25 383.39 630.92 383.39L630.92 383.39L632.00 383.39L632.00 385L630.34 385Q629.55 385 629.07 384.56Q628.59 384.11 628.59 383.37L628.59 383.37L628.59 383.25L628.30 383.25Q628.04 383.70 627.60 384.20Q627.15 384.69 626.38 385.01Q625.62 385.34 624.39 385.34ZM624.61 383.70L624.61 383.70Q626.29 383.70 627.33 382.71Q628.38 381.71 628.38 379.91L628.38 379.91L628.38 379.65L624.49 379.65Q623.36 379.65 622.63 380.14Q621.90 380.63 621.90 381.62L621.90 381.62Q621.90 382.60 622.65 383.15Q623.41 383.70 624.61 383.70ZM636.49 385L634.59 385L634.59 373.26L636.44 373.26L636.44 375.26L636.78 375.26Q637.16 374.42 638.08 373.73Q639.01 373.05 640.81 373.05L640.81 373.05Q642.13 373.05 643.17 373.60Q644.22 374.15 644.84 375.23Q645.46 376.31 645.46 377.90L645.46 377.90L645.46 385L643.57 385L643.57 378.04Q643.57 376.29 642.69 375.50Q641.82 374.70 640.33 374.70L640.33 374.70Q638.62 374.70 637.56 375.81Q636.49 376.91 636.49 379.10L636.49 379.10L636.49 385ZM654.27 385.34L654.27 385.34Q652.76 385.34 651.49 384.62Q650.22 383.90 649.47 382.53Q648.73 381.16 648.73 379.29L648.73 379.29L648.73 378.98Q648.73 377.10 649.47 375.75Q650.22 374.39 651.48 373.66Q652.74 372.93 654.27 372.93L654.27 372.93Q655.50 372.93 656.35 373.25Q657.20 373.58 657.73 374.07Q658.26 374.56 658.54 375.11L658.54 375.11L658.88 375.11L658.88 368.20L660.78 368.20L660.78 385L658.93 385L658.93 383.06L658.59 383.06Q658.11 383.94 657.10 384.64Q656.10 385.34 654.27 385.34ZM654.78 383.66L654.78 383.66Q656.60 383.66 657.74 382.49Q658.88 381.33 658.88 379.24L658.88 379.24L658.88 379.02Q658.88 376.94 657.74 375.77Q656.60 374.61 654.78 374.61L654.78 374.61Q652.98 374.61 651.81 375.77Q650.65 376.94 650.65 379.02L650.65 379.02L650.65 379.24Q650.65 381.33 651.81 382.49Q652.98 383.66 654.78 383.66ZM672.82 385L670.93 385L670.93 368.20L672.82 368.20L672.82 385ZM680.41 385.34L680.41 385.34Q679.18 385.34 678.18 384.90Q677.17 384.47 676.59 383.66Q676.02 382.84 676.02 381.66L676.02 381.66Q676.02 380.46 676.59 379.68Q677.17 378.90 678.18 378.51Q679.18 378.11 680.43 378.11L680.43 378.11L684.39 378.11L684.39 377.25Q684.39 376 683.66 375.28Q682.93 374.56 681.49 374.56L681.49 374.56Q680.07 374.56 679.28 375.24Q678.49 375.93 678.20 377.08L678.20 377.08L676.42 376.50Q676.71 375.52 677.34 374.72Q677.96 373.91 679.00 373.42Q680.05 372.93 681.51 372.93L681.51 372.93Q683.77 372.93 685.02 374.09Q686.26 375.26 686.26 377.37L686.26 377.37L686.26 382.67Q686.26 383.39 686.94 383.39L686.94 383.39L688.02 383.39L688.02 385L686.36 385Q685.57 385 685.09 384.56Q684.61 384.11 684.61 383.37L684.61 383.37L684.61 383.25L684.32 383.25Q684.06 383.70 683.61 384.20Q683.17 384.69 682.40 385.01Q681.63 385.34 680.41 385.34ZM680.62 383.70L680.62 383.70Q682.30 383.70 683.35 382.71Q684.39 381.71 684.39 379.91L684.39 379.91L684.39 379.65L680.50 379.65Q679.38 379.65 678.64 380.14Q677.91 380.63 677.91 381.62L677.91 381.62Q677.91 382.60 678.67 383.15Q679.42 383.70 680.62 383.70ZM695.10 385.22L695.10 385.22Q693.82 385.22 692.76 384.66Q691.69 384.11 691.08 383.02Q690.46 381.93 690.46 380.37L690.46 380.37L690.46 373.26L692.36 373.26L692.36 380.22Q692.36 381.98 693.24 382.77Q694.11 383.56 695.60 383.56L695.60 383.56Q697.28 383.56 698.36 382.46Q699.44 381.35 699.44 379.17L699.44 379.17L699.44 373.26L701.34 373.26L701.34 385L699.49 385L699.49 383.01L699.15 383.01Q698.77 383.85 697.83 384.53Q696.90 385.22 695.10 385.22ZM707.19 385L705.30 385L705.30 373.26L707.14 373.26L707.14 375.26L707.48 375.26Q707.86 374.42 708.79 373.73Q709.71 373.05 711.51 373.05L711.51 373.05Q712.83 373.05 713.88 373.60Q714.92 374.15 715.54 375.23Q716.17 376.31 716.17 377.90L716.17 377.90L716.17 385L714.27 385L714.27 378.04Q714.27 376.29 713.40 375.50Q712.52 374.70 711.03 374.70L711.03 374.70Q709.33 374.70 708.26 375.81Q707.19 376.91 707.19 379.10L707.19 379.10L707.19 385ZM725.41 385.34L725.41 385.34Q723.70 385.34 722.35 384.60Q720.99 383.87 720.21 382.50Q719.43 381.14 719.43 379.26L719.43 379.26L719.43 379Q719.43 377.10 720.21 375.75Q720.99 374.39 722.35 373.66Q723.70 372.93 725.41 372.93L725.41 372.93Q727.09 372.93 728.28 373.55Q729.46 374.18 730.15 375.21Q730.83 376.24 731.02 377.42L731.02 377.42L729.18 377.80Q729.06 376.94 728.61 376.22Q728.17 375.50 727.38 375.06Q726.58 374.63 725.43 374.63L725.43 374.63Q724.26 374.63 723.33 375.16Q722.41 375.69 721.87 376.67Q721.33 377.66 721.33 379.02L721.33 379.02L721.33 379.24Q721.33 380.61 721.87 381.59Q722.41 382.58 723.33 383.10Q724.26 383.63 725.43 383.63L725.43 383.63Q727.18 383.63 728.11 382.72Q729.03 381.81 729.25 380.46L729.25 380.46L731.12 380.87Q730.86 382.02 730.16 383.06Q729.46 384.09 728.28 384.71Q727.09 385.34 725.41 385.34ZM736.26 385L734.36 385L734.36 368.20L736.26 368.20L736.26 375.14L736.59 375.14Q736.83 374.61 737.32 374.14Q737.82 373.67 738.60 373.36Q739.38 373.05 740.58 373.05L740.58 373.05Q741.90 373.05 742.94 373.61Q743.98 374.18 744.61 375.24Q745.23 376.31 745.23 377.90L745.23 377.90L745.23 385L743.34 385L743.34 378.04Q743.34 376.29 742.46 375.50Q741.58 374.70 740.10 374.70L740.10 374.70Q738.39 374.70 737.32 375.81Q736.26 376.91 736.26 379.10L736.26 379.10L736.26 385ZM754.45 385.34L754.45 385.34Q752.67 385.34 751.33 384.58Q749.98 383.82 749.24 382.46Q748.50 381.09 748.50 379.29L748.50 379.29L748.50 379Q748.50 377.18 749.24 375.81Q749.98 374.44 751.30 373.68Q752.62 372.93 754.33 372.93L754.33 372.93Q755.98 372.93 757.26 373.64Q758.53 374.34 759.25 375.66Q759.97 376.98 759.97 378.76L759.97 378.76L759.97 379.62L750.39 379.62Q750.46 381.52 751.62 382.59Q752.77 383.66 754.50 383.66L754.50 383.66Q756.01 383.66 756.82 382.96Q757.64 382.26 758.07 381.30L758.07 381.30L759.70 382.10Q759.34 382.84 758.71 383.58Q758.07 384.33 757.05 384.83Q756.03 385.34 754.45 385.34ZM750.42 378.06L750.42 378.06L758.05 378.06Q757.95 376.43 756.93 375.52Q755.91 374.61 754.33 374.61L754.33 374.61Q752.72 374.61 751.69 375.52Q750.66 376.43 750.42 378.06ZM768.01 385.34L768.01 385.34Q765.82 385.34 764.32 384.33Q762.82 383.32 762.51 381.14L762.51 381.14L764.31 380.73Q764.50 381.88 765.03 382.54Q765.56 383.20 766.34 383.48Q767.12 383.75 768.01 383.75L768.01 383.75Q769.33 383.75 770.10 383.22Q770.86 382.70 770.86 381.81L770.86 381.81Q770.86 380.90 770.13 380.52Q769.40 380.15 768.13 379.91L768.13 379.91L767.14 379.74Q766.02 379.55 765.08 379.14Q764.14 378.74 763.59 378.04Q763.04 377.34 763.04 376.29L763.04 376.29Q763.04 374.70 764.26 373.82Q765.49 372.93 767.50 372.93L767.50 372.93Q769.50 372.93 770.73 373.83Q771.97 374.73 772.33 376.36L772.33 376.36L770.55 376.82Q770.34 375.54 769.52 375.03Q768.70 374.51 767.50 374.51L767.50 374.51Q766.30 374.51 765.61 374.96Q764.91 375.40 764.91 376.26L764.91 376.26Q764.91 377.10 765.57 377.50Q766.23 377.90 767.34 378.09L767.34 378.09L768.32 378.26Q769.57 378.47 770.56 378.84Q771.56 379.22 772.15 379.91Q772.74 380.61 772.74 381.74L772.74 381.74Q772.74 383.46 771.45 384.40Q770.17 385.34 768.01 385.34Z" fill="#A89B8C"></path><path d="M87.99 419.34L87.99 419.34Q84.99 419.34 83.22 417.60Q81.44 415.86 81.44 412.52L81.44 412.52L81.44 408.68Q81.44 405.34 83.22 403.60Q84.99 401.86 87.99 401.86L87.99 401.86Q90.97 401.86 92.56 403.52Q94.16 405.18 94.16 408.06L94.16 408.06L94.16 408.18L92.17 408.18L92.17 407.98Q92.17 406.09 91.15 404.88Q90.13 403.66 87.99 403.66L87.99 403.66Q85.86 403.66 84.66 404.97Q83.46 406.28 83.46 408.63L83.46 408.63L83.46 412.57Q83.46 414.92 84.66 416.23Q85.86 417.54 87.99 417.54L87.99 417.54Q90.13 417.54 91.15 416.32Q92.17 415.11 92.17 413.22L92.17 413.22L92.17 412.83L94.16 412.83L94.16 413.14Q94.16 416.02 92.56 417.68Q90.97 419.34 87.99 419.34ZM99.30 419L97.40 419L97.40 402.20L99.30 402.20L99.30 419ZM106.88 419.34L106.88 419.34Q105.66 419.34 104.65 418.90Q103.64 418.47 103.06 417.66Q102.49 416.84 102.49 415.66L102.49 415.66Q102.49 414.46 103.06 413.68Q103.64 412.90 104.65 412.51Q105.66 412.11 106.90 412.11L106.90 412.11L110.86 412.11L110.86 411.25Q110.86 410 110.13 409.28Q109.40 408.56 107.96 408.56L107.96 408.56Q106.54 408.56 105.75 409.24Q104.96 409.93 104.67 411.08L104.67 411.08L102.90 410.50Q103.18 409.52 103.81 408.72Q104.43 407.91 105.48 407.42Q106.52 406.93 107.98 406.93L107.98 406.93Q110.24 406.93 111.49 408.09Q112.74 409.26 112.74 411.37L112.74 411.37L112.74 416.67Q112.74 417.39 113.41 417.39L113.41 417.39L114.49 417.39L114.49 419L112.83 419Q112.04 419 111.56 418.56Q111.08 418.11 111.08 417.37L111.08 417.37L111.08 417.25L110.79 417.25Q110.53 417.70 110.08 418.20Q109.64 418.69 108.87 419.01Q108.10 419.34 106.88 419.34ZM107.10 417.70L107.10 417.70Q108.78 417.70 109.82 416.71Q110.86 415.71 110.86 413.91L110.86 413.91L110.86 413.65L106.98 413.65Q105.85 413.65 105.12 414.14Q104.38 414.63 104.38 415.62L104.38 415.62Q104.38 416.60 105.14 417.15Q105.90 417.70 107.10 417.70ZM121.57 419.22L121.57 419.22Q120.30 419.22 119.23 418.66Q118.16 418.11 117.55 417.02Q116.94 415.93 116.94 414.37L116.94 414.37L116.94 407.26L118.83 407.26L118.83 414.22Q118.83 415.98 119.71 416.77Q120.58 417.56 122.07 417.56L122.07 417.56Q123.75 417.56 124.83 416.46Q125.91 415.35 125.91 413.17L125.91 413.17L125.91 407.26L127.81 407.26L127.81 419L125.96 419L125.96 417.01L125.62 417.01Q125.24 417.85 124.30 418.53Q123.37 419.22 121.57 419.22ZM136.74 419.34L136.74 419.34Q135.22 419.34 133.95 418.62Q132.68 417.90 131.94 416.53Q131.19 415.16 131.19 413.29L131.19 413.29L131.19 412.98Q131.19 411.10 131.94 409.75Q132.68 408.39 133.94 407.66Q135.20 406.93 136.74 406.93L136.74 406.93Q137.96 406.93 138.81 407.25Q139.66 407.58 140.19 408.07Q140.72 408.56 141.01 409.11L141.01 409.11L141.34 409.11L141.34 402.20L143.24 402.20L143.24 419L141.39 419L141.39 417.06L141.06 417.06Q140.58 417.94 139.57 418.64Q138.56 419.34 136.74 419.34ZM137.24 417.66L137.24 417.66Q139.06 417.66 140.20 416.49Q141.34 415.33 141.34 413.24L141.34 413.24L141.34 413.02Q141.34 410.94 140.20 409.77Q139.06 408.61 137.24 408.61L137.24 408.61Q135.44 408.61 134.28 409.77Q133.11 410.94 133.11 413.02L133.11 413.02L133.11 413.24Q133.11 415.33 134.28 416.49Q135.44 417.66 137.24 417.66ZM152.60 419.34L152.60 419.34Q150.82 419.34 149.48 418.58Q148.14 417.82 147.39 416.46Q146.65 415.09 146.65 413.29L146.65 413.29L146.65 413Q146.65 411.18 147.39 409.81Q148.14 408.44 149.46 407.68Q150.78 406.93 152.48 406.93L152.48 406.93Q154.14 406.93 155.41 407.64Q156.68 408.34 157.40 409.66Q158.12 410.98 158.12 412.76L158.12 412.76L158.12 413.62L148.54 413.62Q148.62 415.52 149.77 416.59Q150.92 417.66 152.65 417.66L152.65 417.66Q154.16 417.66 154.98 416.96Q155.79 416.26 156.22 415.30L156.22 415.30L157.86 416.10Q157.50 416.84 156.86 417.58Q156.22 418.33 155.20 418.83Q154.18 419.34 152.60 419.34ZM148.57 412.06L148.57 412.06L156.20 412.06Q156.10 410.43 155.08 409.52Q154.06 408.61 152.48 408.61L152.48 408.61Q150.87 408.61 149.84 409.52Q148.81 410.43 148.57 412.06ZM162.46 419.34L162.46 419.34Q161.77 419.34 161.30 418.88Q160.83 418.42 160.83 417.70L160.83 417.70Q160.83 416.98 161.30 416.53Q161.77 416.07 162.46 416.07L162.46 416.07Q163.18 416.07 163.64 416.53Q164.10 416.98 164.10 417.70L164.10 417.70Q164.10 418.42 163.64 418.88Q163.18 419.34 162.46 419.34Z" fill="#A89B8C"></path><path d="M87.37 562.08L86.05 562.08L86.05 559.20Q83.98 559.02 82.81 557.87Q81.63 556.71 81.58 554.82L81.58 554.82L83.56 554.82Q83.56 555.90 84.21 556.58Q84.86 557.26 86.05 557.42L86.05 557.42L86.05 551.65L85.46 551.48Q83.81 550.97 82.92 549.78Q82.02 548.59 82.02 546.99L82.02 546.99Q82.02 545.23 83.11 544.08Q84.20 542.94 86.05 542.76L86.05 542.76L86.05 539.86L87.37 539.86L87.37 542.74Q89.20 542.92 90.30 544.06Q91.40 545.21 91.42 547.01L91.42 547.01L89.44 547.01Q89.44 545.98 88.90 545.33Q88.36 544.68 87.37 544.52L87.37 544.52L87.37 549.98L88.25 550.27Q89.86 550.77 90.74 551.98Q91.62 553.19 91.62 554.82L91.62 554.82Q91.62 556.62 90.46 557.81Q89.31 559 87.37 559.20L87.37 559.20L87.37 562.08ZM87.37 552.07L87.37 557.42Q88.45 557.24 89.04 556.58Q89.64 555.92 89.64 554.86L89.64 554.86Q89.64 553.90 89.12 553.17Q88.60 552.44 87.63 552.16L87.63 552.16L87.37 552.07ZM86.05 549.56L86.05 549.56L86.05 544.52Q85.08 544.68 84.54 545.27Q84.00 545.87 84.00 546.81L84.00 546.81Q84.00 547.96 84.71 548.73L84.71 548.73Q85.21 549.30 86.05 549.56Z" fill="#D97757"></path><path d="M113.09 559.22L113.09 559.22Q111.64 559.22 110.55 558.67Q109.46 558.12 108.86 557.08Q108.27 556.03 108.27 554.60L108.27 554.60L108.27 551.30Q108.27 549.85 108.86 548.81Q109.46 547.78 110.55 547.23Q111.64 546.68 113.09 546.68L113.09 546.68Q115.18 546.68 116.45 547.80Q117.73 548.92 117.80 550.86L117.80 550.86L115.82 550.86Q115.75 549.69 115.04 549.07Q114.32 548.44 113.09 548.44L113.09 548.44Q111.79 548.44 111.02 549.18Q110.25 549.91 110.25 551.28L110.25 551.28L110.25 554.60Q110.25 555.96 111.02 556.71Q111.79 557.46 113.09 557.46L113.09 557.46Q114.32 557.46 115.04 556.82Q115.75 556.18 115.82 555.04L115.82 555.04L117.80 555.04Q117.73 556.98 116.45 558.10Q115.18 559.22 113.09 559.22ZM131.70 559L127.85 559Q126.79 559 126.00 558.58Q125.21 558.16 124.77 557.39Q124.33 556.62 124.33 555.59L124.33 555.59L124.33 544.74L120.26 544.74L120.26 542.94L126.31 542.94L126.31 555.59Q126.31 556.34 126.73 556.77Q127.15 557.20 127.85 557.20L127.85 557.20L131.70 557.20L131.70 559ZM138.34 559.22L138.34 559.22Q136.43 559.22 135.33 558.24Q134.23 557.26 134.23 555.59L134.23 555.59Q134.23 553.90 135.33 552.93Q136.43 551.96 138.30 551.96L138.30 551.96L142.04 551.96L142.04 550.75Q142.04 549.63 141.37 549.02Q140.70 548.42 139.47 548.42L139.47 548.42Q138.39 548.42 137.66 548.87Q136.94 549.32 136.83 550.09L136.83 550.09L134.85 550.09Q135.04 548.53 136.32 547.60Q137.60 546.68 139.51 546.68L139.51 546.68Q141.60 546.68 142.81 547.76Q144.02 548.84 144.02 550.68L144.02 550.68L144.02 559L142.08 559L142.08 556.69L142.06 556.69Q141.95 557.77 141.07 558.45L141.07 558.45Q140.04 559.22 138.34 559.22ZM138.83 557.66L138.83 557.66Q140.24 557.66 141.14 556.95Q142.04 556.25 142.04 555.15L142.04 555.15L142.04 553.43L138.34 553.43Q137.35 553.43 136.78 553.98Q136.21 554.53 136.21 555.48L136.21 555.48Q136.21 556.49 136.90 557.08Q137.60 557.66 138.83 557.66ZM152.58 559.22L152.58 559.22Q150.49 559.22 149.23 557.98Q147.98 556.73 147.98 554.60L147.98 554.60L147.98 546.90L149.96 546.90L149.96 554.60Q149.96 555.96 150.66 556.72Q151.37 557.48 152.58 557.48L152.58 557.48Q153.81 557.48 154.53 556.72Q155.24 555.96 155.24 554.60L155.24 554.60L155.24 546.90L157.22 546.90L157.22 554.60Q157.22 556.73 155.94 557.98Q154.67 559.22 152.58 559.22ZM165.10 559.22L165.10 559.22Q163.29 559.22 162.18 558.01Q161.07 556.80 161.07 554.73L161.07 554.73L161.07 551.19Q161.07 549.10 162.17 547.89Q163.27 546.68 165.10 546.68L165.10 546.68Q166.59 546.68 167.49 547.49L167.49 547.49Q168.24 548.18 168.37 549.21L168.37 549.21L168.44 549.21L168.40 546.46L168.40 542.94L170.38 542.94L170.38 559L168.40 559L168.40 556.69L168.37 556.69Q168.24 557.75 167.49 558.41L167.49 558.41Q166.59 559.22 165.10 559.22ZM165.76 557.50L165.76 557.50Q166.99 557.50 167.69 556.73Q168.40 555.96 168.40 554.60L168.40 554.60L168.40 551.30Q168.40 549.94 167.69 549.17Q166.99 548.40 165.76 548.40L165.76 548.40Q164.50 548.40 163.78 549.14Q163.05 549.89 163.05 551.30L163.05 551.30L163.05 554.60Q163.05 556.01 163.78 556.76Q164.50 557.50 165.76 557.50ZM179.00 559.22L179.00 559.22Q177.57 559.22 176.50 558.65Q175.44 558.08 174.85 557.03Q174.27 555.99 174.27 554.60L174.27 554.60L174.27 551.30Q174.27 549.89 174.85 548.86Q175.44 547.82 176.50 547.25Q177.57 546.68 179.00 546.68Q180.43 546.68 181.50 547.25Q182.56 547.82 183.15 548.86Q183.73 549.89 183.73 551.30L183.73 551.30L183.73 553.43L176.21 553.43L176.21 554.60Q176.21 556.03 176.93 556.79Q177.66 557.55 179.00 557.55L179.00 557.55Q180.14 557.55 180.85 557.14Q181.55 556.73 181.71 555.92L181.71 555.92L183.69 555.92Q183.49 557.44 182.20 558.33Q180.91 559.22 179.00 559.22ZM176.21 551.94L181.79 551.94L181.79 551.30Q181.79 549.87 181.08 549.10Q180.36 548.33 179.00 548.33L179.00 548.33Q177.66 548.33 176.93 549.10Q176.21 549.87 176.21 551.30L176.21 551.30L176.21 551.94ZM192.90 559.22L192.90 559.22Q191.41 559.22 190.51 558.41L190.51 558.41Q189.76 557.75 189.63 556.69L189.63 556.69L189.60 556.69L189.60 559L187.62 559L187.62 542.94L189.60 542.94L189.60 546.46L189.56 549.21L189.63 549.21Q189.76 548.18 190.53 547.49L190.53 547.49Q191.43 546.68 192.90 546.68L192.90 546.68Q194.73 546.68 195.83 547.89Q196.93 549.10 196.93 551.19L196.93 551.19L196.93 554.73Q196.93 556.80 195.83 558.01Q194.73 559.22 192.90 559.22ZM192.24 557.50L192.24 557.50Q193.50 557.50 194.22 556.76Q194.95 556.01 194.95 554.60L194.95 554.60L194.95 551.30Q194.95 549.89 194.22 549.14Q193.50 548.40 192.24 548.40L192.24 548.40Q191.03 548.40 190.32 549.17Q189.60 549.94 189.60 551.30L189.60 551.30L189.60 554.60Q189.60 555.96 190.32 556.73Q191.03 557.50 192.24 557.50ZM205.40 559.18L205.40 559.18Q203.95 559.18 202.89 558.63Q201.84 558.08 201.25 557.03Q200.67 555.99 200.67 554.56L200.67 554.56L200.67 551.34Q200.67 549.89 201.25 548.86Q201.84 547.82 202.89 547.27Q203.95 546.72 205.40 546.72L205.40 546.72Q206.85 546.72 207.91 547.27Q208.96 547.82 209.55 548.86Q210.13 549.89 210.13 551.32L210.13 551.32L210.13 554.56Q210.13 555.99 209.55 557.03Q208.96 558.08 207.91 558.63Q206.85 559.18 205.40 559.18ZM205.40 557.42L205.40 557.42Q206.70 557.42 207.42 556.69Q208.15 555.96 208.15 554.56L208.15 554.56L208.15 551.34Q208.15 549.94 207.42 549.21Q206.70 548.48 205.40 548.48L205.40 548.48Q204.12 548.48 203.39 549.21Q202.65 549.94 202.65 551.34L202.65 551.34L202.65 554.56Q202.65 555.96 203.39 556.69Q204.12 557.42 205.40 557.42ZM215.41 559L213.10 559L217.39 552.77L213.36 546.90L215.70 546.90L218.09 550.64Q218.25 550.88 218.40 551.17L218.40 551.17L218.62 551.63Q218.69 551.45 218.83 551.17Q218.97 550.88 219.13 550.64L219.13 550.64L221.55 546.90L223.86 546.90L219.83 552.80L224.10 559L221.77 559L219.17 555.04Q219.02 554.80 218.87 554.48Q218.73 554.16 218.62 553.96L218.62 553.96Q218.53 554.16 218.37 554.48Q218.20 554.80 218.03 555.04L218.03 555.04L215.41 559Z" fill="#8A8175"></path><rect x="229.2" y="544" width="11" height="20" fill="#D97757"></rect></svg>